<svg width="157" height="18" viewBox="0 0 157 18" fill="none" xmlns="http://www.w3.org/2000/svg">
<path d="M7.04 0.079999C8.816 0.079999 10.368 0.439999 11.696 1.16C13.04 1.864 14.072 2.856 14.792 4.136C15.512 5.416 15.872 6.88 15.872 8.528C15.872 10.16 15.504 11.616 14.768 12.896C14.048 14.176 13.016 15.184 11.672 15.92C10.344 16.64 8.8 17 7.04 17H0.344V0.079999H7.04ZM6.68 12.848C8.056 12.848 9.136 12.472 9.92 11.72C10.704 10.968 11.096 9.904 11.096 8.528C11.096 7.136 10.704 6.064 9.92 5.312C9.136 4.544 8.056 4.16 6.68 4.16H5.048V12.848H6.68ZM23.8964 3.848V6.608H29.2964V10.184H23.8964V13.232H30.0164V17H19.1924V0.079999H30.0164V3.848H23.8964ZM38.2449 13.4H43.5009V17H33.5409V0.079999H38.2449V13.4ZM59.8979 5.72C59.8979 6.744 59.6579 7.68 59.1779 8.528C58.7139 9.36 58.0019 10.032 57.0419 10.544C56.0979 11.04 54.9379 11.288 53.5619 11.288H51.2339V17H46.5299V0.079999H53.5619C54.9219 0.079999 56.0739 0.319999 57.0179 0.8C57.9779 1.28 58.6979 1.944 59.1779 2.792C59.6579 3.64 59.8979 4.616 59.8979 5.72ZM53.1059 7.544C54.4339 7.544 55.0979 6.936 55.0979 5.72C55.0979 4.488 54.4339 3.872 53.1059 3.872H51.2339V7.544H53.1059ZM78.1318 0.079999V17H73.4277V10.208H67.6917V17H62.9877V0.079999H67.6917V6.44H73.4277V0.079999H78.1318ZM86.7277 0.079999V17H82.0237V0.079999H86.7277ZM106.278 17H101.574L95.3105 7.544V17H90.6065V0.079999H95.3105L101.574 9.656V0.079999H106.278V17ZM114.862 0.079999V17H110.158V0.079999H114.862ZM123.349 0.079999V9.896C123.349 10.808 123.557 11.512 123.973 12.008C124.405 12.504 125.053 12.752 125.917 12.752C126.781 12.752 127.429 12.504 127.861 12.008C128.309 11.496 128.533 10.792 128.533 9.896V0.079999H133.237V9.896C133.237 11.448 132.909 12.776 132.253 13.88C131.597 14.968 130.701 15.792 129.565 16.352C128.445 16.896 127.197 17.168 125.821 17.168C124.445 17.168 123.213 16.896 122.125 16.352C121.053 15.792 120.205 14.968 119.581 13.88C118.973 12.792 118.669 11.464 118.669 9.896V0.079999H123.349ZM156.779 0.079999V17H152.075V7.664L148.883 17H144.947L141.731 7.592V17H137.027V0.079999H142.715L146.963 11.072L151.115 0.079999H156.779Z" fill="white"/>
</svg>
